<?xml version="1.0" encoding="UTF-8" ?>
<svg xmlns="http://www.w3.org/2000/svg" width="22" height="30">
<path transform="scale(0.1,0.1)" d="M144,134l27,-10c3,-1 6,0 6,5s0,117 0,127 5,23 20,27 13,8 13,11 -7,5 -10,5 -72,0 -73,0 -10,0 -10,-7 10,-9 18,-12 9,-10 9,-23 0,-65 0,-80 -12,-20 -20,-20 -35,0 -40,0 -10,0 -10,10 0,70 0,90 6,23 10,24 14,5 14,12 -11,6 -13,6 -66,0 -70,0 -7,-3 -7,-7 12,-9 17,-10 16,-10 16,-30 0,-80 0,-86 -7,-8 -17,-8 -13,-2 -13,-6 19,-14 24,-15 6,-8 6,-10c0,-44 40,-104 95,-104 49,0 48,31 48,35 0,11 -18,17 -27,17 -12,0 -19,-30 -45,-30 -35,0 -38,65 -38,85 0,7 10,5 65,4z"/>
</svg>
