<svg xmlns:xlink="http://www.w3.org/1999/xlink" xmlns="http://www.w3.org/2000/svg" width="600" height="600">
<g stroke="#000" stroke-width="20">
<path d="M300,10a290,290 0 1,0 .01,0z M36,270c64,-40 156,-40 220,0 40,24 48,24 88,0 64,-40 156,-40 220,0 16,10 0,96 -32,116s-136,32 -168,0 -34,-46 -42,-58c-8,-16 -36,-16 -44,0 -8,12 -10,26 -42,58s-136,20 -168,0 -48,-106 -32,-116z" fill="#fff" fill-rule="evenodd"/>
<path d="M36,270c64,-40 156,-40 220,0 40,24 48,24 88,0 64,-40 156,-40 220,0 16,10 0,96 -32,116s-136,32 -168,0 -34,-46 -42,-58c-8,-16 -36,-16 -44,0 -8,12 -10,26 -42,58s-136,20 -168,0 -48,-106 -32,-116z m20,32c0,-40 72,-44 92,-44 40,0 112,20 112,48 0,12 -8,84 -100,84s-104,-32 -104,-88z m488,0c0,-40 -72,-44 -92,-44 -40,0 -112,20 -112,48 0,12 8,84 100,84s104,-32 104,-88z" stroke="none" fill-rule="evenodd"/>
<path d="M36,270c40,-100 40,-60 60,-20z"/>
</g>
<path d="M56,302c0,-40 72,-44 92,-44 40,0 112,20 112,48 0,12 -8,84 -100,84s-104,-32 -104,-88z m488,0c0,-40 -72,-44 -92,-44 -40,0 -112,20 -112,48 0,12 8,84 100,84s104,-32 104,-88z" opacity=".2"/>
</svg>
