<?xml version="1.0" encoding="UTF-8" ?>
<svg xmlns="http://www.w3.org/2000/svg" version="1.0" width="290" height="185">
	<title>Histidine</title>
	<g stroke-width="3" stroke="gray" fill="none">
		<path d="M110,80 l-43.3,25 v50 -45 l-43.3,-25 m4.33,-7.5 l43.3,25"/>
		<path d="M110,80 l-3,-50 h6z" fill="gray"/>
		<path d="M110,80 l43.3,25 43.3,-25 5.23,-49.73 34.24,-7.28 m22.16,9.87 l17.5,30.31 -23.42,26.01 m-23.74,5.05 l-31.97,-14.23 m8.66,-5 l4,-38.03 m36.09,47.9 l20.47,-22.74" stroke="black"/>
	</g>
	<g font-family="Verdana" font-size="32" stroke="none" fill="gray">
		<circle cx="110" cy="80" r="6"/>
		<text x="98" y="27">NH</text>
		<text x="144" y="30" font-size="22">2</text>
		<text x="0" y="85">O</text>
		<text x="54" y="182">OH</text>
		<g fill="black">
			<text x="237" y="30">NH</text>
			<text x="230" y="115">N</text>
		</g>
	</g>
</svg>
