<?xml version="1.0" encoding="UTF-8" ?>
<svg xmlns="http://www.w3.org/2000/svg" version="1.0" width="375" height="205">
	<title>Tyrosine</title>
	<g stroke-width="3" stroke="gray" fill="none">
		<path d="M110,100 l-43.3,25 v50 -45 l-43.3,-25 m4.33,-7.5 l43.3,25"/>
		<path d="M110,100 l-3,-50 6,0z" fill="gray"/>
		<path d="M110,100 l43.3,25 43.3,-25 v-50 l43.3,-25 43.3,25 v50 l-43.3,25 -43.3,-25 m8.66,-5 v-40 m34.64,-20 l34.64,20 m0,40 l-34.64,20 m43.3,-65 l43.3,-25" stroke="black"/>
	</g>
	<g font-family="Verdana" font-size="32" stroke="none" fill="gray">
		<circle cx="110" cy="100" r="6"/>
		<text x="98" y="47">NH</text>
		<text x="144" y="50" font-size="22">2</text>
		<text x="0" y="105">O</text>
		<text x="54" y="202">OH</text>
		<text x="325" y="27" fill="black">OH</text>
	</g>
</svg>
